<svg fill="#000000" xmlns="http://www.w3.org/2000/svg" viewBox="0 18 100 64" x="0px" y="0px">
<defs><style>.cls-1{fill:none;}</style></defs>
<title>DS4</title>
<g>
<rect class="cls-1" width="100" height="100"></rect>
<path d="M19.49,37.06a.78.78,0,0,1-.55-.23L16.4,34.29l0-.35V30a.78.78,0,0,1,.78-.78h4.67a.78.78,0,0,1,.78.78v4.26l-.24.26L20,36.83A.78.78,0,0,1,19.49,37.06Zm-1.71-3.37,1.71,1.71,1.71-1.71V30.6H17.78Z"></path>
<path d="M21.82,46.69H17.15a.78.78,0,0,1-.78-.78V41.64l.24-.26,2.33-2.33a.78.78,0,0,1,1.1,0l2.54,2.54,0,.35v4A.78.78,0,0,1,21.82,46.69Zm-4-1.4H21.2V42.2l-1.71-1.71L17.78,42.2Z"></path>
<path d="M27.45,41.06H23.2l-.26-.22L20.6,38.49a.78.78,0,0,1,0-1.1l2.54-2.54.35,0h4a.78.78,0,0,1,.78.78v4.67A.78.78,0,0,1,27.45,41.06Zm-3.71-1.4h3.09V36.23H23.74L22,37.94Z"></path>
<path d="M15.49,41.06h-4a.78.78,0,0,1-.78-.78V35.61a.78.78,0,0,1,.78-.78h4.26l.26.24,2.33,2.33a.78.78,0,0,1,0,1.1L15.84,41Zm-3.35-1.4h3.09L17,37.94l-1.71-1.71H12.15Z"></path>
<path d="M19.49,49.55A11.89,11.89,0,1,1,31.38,37.66,11.9,11.9,0,0,1,19.49,49.55Zm0-22.38A10.49,10.49,0,1,0,30,37.66,10.5,10.5,0,0,0,19.49,27.17Z"></path>
<!-- <path d="M33.92,47.21a4.19,4.19,0,1,1-4.19,4.19,4.2,4.2,0,0,1,4.19-4.19m0-1.4a5.59,5.59,0,1,0,5.59,5.59,5.59,5.59,0,0,0-5.59-5.59Z"></path> -->
<path d="M33.92,43.78A7.62,7.62,0,1,1,26.3,51.4a7.63,7.63,0,0,1,7.62-7.62m0-1.4a9,9,0,1,0,9,9,9,9,0,0,0-9-9Z"></path>
<path d="M80.51,49.55A11.89,11.89,0,1,1,92.4,37.66,11.9,11.9,0,0,1,80.51,49.55Zm0-22.38A10.49,10.49,0,1,0,91,37.66,10.5,10.5,0,0,0,80.51,27.17Z"></path>
Share:<path d="M30.1,28.88a.7.7,0,0,1-.7-.7v-1.7a.7.7,0,0,1,1.4,0v1.7A.7.7,0,0,1,30.1,28.88Z"></path>
Options:<path d="M69.32,28.88a.7.7,0,0,1-.7-.7v-1.7a.7.7,0,0,1,1.4,0v1.7A.7.7,0,0,1,69.32,28.88Z"></path>
Square:<path d="M74.07,35.86a1.8,1.8,0,1,1-1.8,1.8,1.8,1.8,0,0,1,1.8-1.8m0-1.4a3.2,3.2,0,1,0,3.2,3.2,3.2,3.2,0,0,0-3.2-3.2Z"></path>
Circle:<path d="M86.9,35.86a1.8,1.8,0,1,1-1.8,1.8,1.8,1.8,0,0,1,1.8-1.8m0-1.4a3.2,3.2,0,1,0,3.2,3.2,3.2,3.2,0,0,0-3.2-3.2Z"></path>
Triangle:<path d="M80.49,29.44a1.8,1.8,0,1,1-1.8,1.8,1.8,1.8,0,0,1,1.8-1.8m0-1.4a3.2,3.2,0,1,0,3.2,3.2,3.2,3.2,0,0,0-3.2-3.2Z"></path>
Cross:<path d="M80.49,42.28a1.8,1.8,0,1,1-1.8,1.8,1.8,1.8,0,0,1,1.8-1.8m0-1.4a3.2,3.2,0,1,0,3.2,3.2,3.2,3.2,0,0,0-3.2-3.2Z"></path>
<path d="M50,55.17a3.1,3.1,0,1,1,3.1-3.1A3.1,3.1,0,0,1,50,55.17Zm0-4.79a1.7,1.7,0,1,0,1.7,1.7A1.7,1.7,0,0,0,50,50.37Z"></path>
<!-- <path d="M66.08,47.21a4.19,4.19,0,1,1-4.19,4.19,4.2,4.2,0,0,1,4.19-4.19m0-1.4a5.59,5.59,0,1,0,5.59,5.59,5.59,5.59,0,0,0-5.59-5.59Z"></path> -->
<path d="M66.08,43.78a7.62,7.62,0,1,1-7.62,7.62,7.63,7.63,0,0,1,7.62-7.62m0-1.4a9,9,0,1,0,9,9,9,9,0,0,0-9-9Z"></path>
<path d="M89.43,81.38h-.11c-5.44-.07-8.12-5.11-10.27-9.15l-.24-.44A157.72,157.72,0,0,1,72.1,56.86a.7.7,0,0,1,1.3-.51,156.23,156.23,0,0,0,6.65,14.78l.24.45c2.08,3.91,4.44,8.35,9.05,8.41,4.32,0,7.88-4,8.75-7.85,1.13-4.94-2.52-24.64-3.89-30-1-4-3.38-13.25-7.77-19H74.78l-1.63,1.21-.28,0h-6.1V38.72a2.3,2.3,0,0,1-2.3,2.3h-29a2.3,2.3,0,0,1-2.3-2.3V24.38H26.89l-.23-.16-1.44-1.07H13.57c-4.39,5.74-6.76,15-7.77,19-1.37,5.35-5,25.05-3.89,30C2.78,75.92,6.33,80,10.57,80h.09c4.61-.06,7-4.5,9.05-8.41l.24-.45A156.23,156.23,0,0,0,26.6,56.34a.7.7,0,0,1,1.3.51,157.72,157.72,0,0,1-6.72,14.92l-.24.44c-2.15,4-4.83,9.08-10.27,9.15h-.11c-4.93,0-9-4.62-10-8.94-1.26-5.51,2.76-26.19,3.9-30.65C5.5,37.66,8,28,12.66,22.05l.21-.27.4,0H25.66l.23.16L27.33,23h6.51a.78.78,0,0,1,.78.78v15a.9.9,0,0,0,.9.9h29a.9.9,0,0,0,.9-.9v-15a.78.78,0,0,1,.78-.78h6.51l1.63-1.21.28,0h12.5l.27.31C92,28,94.5,37.66,95.56,41.79c1.14,4.46,5.16,25.14,3.9,30.65C98.47,76.76,94.36,81.38,89.43,81.38Z"></path>

<path d="M61.13,58.76 H38.9 a.7.7,0,0,1,0-1.4 H61.13 a.7.7,0,0,1,0,1.4 Z"></path>

<path d="M66,25.18a.7.7,0,0,1-.62-.37l-.72-1.36H35.31l-.72,1.36a.7.7,0,0,1-1.24-.66l1.09-2.06.49,0H65.47l.27.4.9,1.7a.7.7,0,0,1-.62,1Z"></path>
<path d="M25.09,21.85a.7.7,0,0,1-.56-.27A4,4,0,0,0,21.39,20H18a4,4,0,0,0-3.14,1.55.7.7,0,1,1-1.11-.85A5.4,5.4,0,0,1,18,18.62h3.42a5.4,5.4,0,0,1,4.25,2.1.7.7,0,0,1-.55,1.13Z"></path>
<path d="M86,21.85a.7.7,0,0,1-.56-.27A4,4,0,0,0,82.34,20H78.91a4,4,0,0,0-3.14,1.55.7.7,0,1,1-1.11-.85,5.4,5.4,0,0,1,4.25-2.1h3.42a5.4,5.4,0,0,1,4.25,2.1A.7.7,0,0,1,86,21.85Z"></path>
Speaker Dots:
<circle cx="50" cy="47.27" r="0.8"></circle>
<circle cx="47.6" cy="47.27" r="0.8"></circle>
<circle cx="52.4" cy="47.27" r="0.8"></circle>
<circle cx="50" cy="43.28" r="0.8"></circle>
<circle cx="47.6" cy="43.28" r="0.8"></circle>
<circle cx="52.4" cy="43.28" r="0.8"></circle>
<circle cx="54.8" cy="43.28" r="0.8"></circle>
<circle cx="45.2" cy="43.28" r="0.8"></circle>
<circle cx="51.2" cy="45.27" r="0.8"></circle>
<circle cx="48.8" cy="45.27" r="0.8"></circle>
<circle cx="53.6" cy="45.27" r="0.8"></circle>
<circle cx="46.4" cy="45.27" r="0.8"></circle>
</g>
</svg>