<svg fill="#000000" xmlns="http://www.w3.org/2000/svg" viewBox="0 17 128 95">
<title>Xbox One Controller</title>
A:<path d="M98,52a5,5,0,1,0,5,5A5,5,0,0,0,98,52Zm0,8a3,3,0,1,1,3-3A3,3,0,0,1,98,60Z"></path>
X:<path d="M89,52a5,5,0,1,0-5-5A5,5,0,0,0,89,52Zm0-8a3,3,0,1,1-3,3A3,3,0,0,1,89,44Z"></path>
B:<path d="M107,42a5,5,0,1,0,5,5A5,5,0,0,0,107,42Zm0,8a3,3,0,1,1,3-3A3,3,0,0,1,107,50Z"></path>
Y:<path d="M98,42a5,5,0,1,0-5-5A5,5,0,0,0,98,42Zm0-8a3,3,0,1,1-3,3A3,3,0,0,1,98,34Z"></path>
Controller:<path d="M112.89,33.09c-.23-.21-.53-.48-.89-.78V29.65a8,8,0,0,0-3.09-6.32A30.78,30.78,0,0,0,90,17a11.86,11.86,0,0,0-4.89,1.21A14.91,14.91,0,0,0,81.18,21H46.82a14.91,14.91,0,0,0-3.92-2.79A11.86,11.86,0,0,0,38,17a30.79,30.79,0,0,0-18.91,6.33A8,8,0,0,0,16,29.65v2.66c-.36.31-.67.58-.89.78A6.68,6.68,0,0,0,14,34.33C8.45,42.72,0,68.8,0,89c0,14.47,5,19.95,9.21,22a5.83,5.83,0,0,0,2.55.59A6,6,0,0,0,16,109.81L32.73,93.1a13.91,13.91,0,0,1,9.9-4.1H85.37a13.91,13.91,0,0,1,9.9,4.1L112,109.81a6,6,0,0,0,6.81,1.18c4.2-2,9.21-7.52,9.21-22,0-20.2-8.45-46.28-14-54.68A6.66,6.66,0,0,0,112.89,33.09Zm-26-11.3A8.06,8.06,0,0,1,90,21a26.75,26.75,0,0,1,16.45,5.48A4,4,0,0,1,108,29.3,32,32,0,0,0,95.3,24.24a7.93,7.93,0,0,0-6.58,2.09l-1.17,1.1-2.92-4.17A10.91,10.91,0,0,1,86.89,21.79ZM81,25l3.64,5.2-8.23,7.72A4,4,0,0,1,73.63,39H54.37a4,4,0,0,1-2.74-1.08L43.4,30.2,47,25ZM21.55,26.48A26.75,26.75,0,0,1,38,21a8.05,8.05,0,0,1,3.12.79,10.91,10.91,0,0,1,2.27,1.48l-2.92,4.17-1.18-1.1a7.92,7.92,0,0,0-6.58-2.09A32,32,0,0,0,20,29.3,4,4,0,0,1,21.55,26.48ZM117,107.39a2,2,0,0,1-2.23-.42L98.1,90.27A17.88,17.88,0,0,0,85.37,85H42.63A17.88,17.88,0,0,0,29.9,90.27L13.19,107a2,2,0,0,1-2.23.42c-2.6-1.26-7-5.33-7-18.39,0-21,8.83-45.65,13.37-52.46a2.72,2.72,0,0,1,.44-.5c1.71-1.56,7.88-6.76,15.46-7.85a3.78,3.78,0,0,1,.54,0,4,4,0,0,1,2.74,1.09L48.9,40.84A8,8,0,0,0,54.37,43H73.63a8,8,0,0,0,5.47-2.16L91.46,29.25a4,4,0,0,1,3.27-1.05c7.58,1.09,13.75,6.28,15.46,7.85h0a2.7,2.7,0,0,1,.44.5C115.17,43.35,124,68,124,89,124,102.06,119.64,106.13,117,107.39Z"></path>
Home:<path d="M64,38a6,6,0,1,0-6-6A6,6,0,0,0,64,38Zm0-10a4,4,0,1,1-4,4A4,4,0,0,1,64,28Z"></path>
Start:<path d="M73,52a4,4,0,1,0-4-4A4,4,0,0,0,73,52Zm0-6a2,2,0,1,1-2,2A2,2,0,0,1,73,46Z"></path>
Back:<path d="M55,44a4,4,0,1,0,4,4A4,4,0,0,0,55,44Zm0,6a2,2,0,1,1,2-2A2,2,0,0,1,55,50Z"></path>
LS-Outer<path d="M41,47A12,12,0,1,0,29,59,12,12,0,0,0,41,47ZM29,57A10,10,0,1,1,39,47,10,10,0,0,1,29,57Z"></path>
LS-inner:<!-- <path d="M29,39a8,8,0,1,0,8,8A8,8,0,0,0,29,39Zm0,14a6,6,0,1,1,6-6A6,6,0,0,1,29,53Z"></path> -->
RS-Outer<path d="M81,57A12,12,0,1,0,93,69,12,12,0,0,0,81,57Zm0,22A10,10,0,1,1,91,69,10,10,0,0,1,81,79Z"></path>
RS-Inner:<!-- <path d="M81,61a8,8,0,1,0,8,8A8,8,0,0,0,81,61Zm0,14a6,6,0,1,1,6-6A6,6,0,0,1,81,75Z"></path> -->
Dpad:<path d="M56,65H51V60a3,3,0,0,0-3-3H46a3,3,0,0,0-3,3v5H38a3,3,0,0,0-3,3v2a3,3,0,0,0,3,3h5v5a3,3,0,0,0,3,3h2a3,3,0,0,0,3-3V73h5a3,3,0,0,0,3-3V68A3,3,0,0,0,56,65Zm1,5a1,1,0,0,1-1,1H50a1,1,0,0,0-1,1v6a1,1,0,0,1-1,1H46a1,1,0,0,1-1-1V72a1,1,0,0,0-1-1H38a1,1,0,0,1-1-1V68a1,1,0,0,1,1-1h6a1,1,0,0,0,1-1V60a1,1,0,0,1,1-1h2a1,1,0,0,1,1,1v6a1,1,0,0,0,1,1h6a1,1,0,0,1,1,1Z"></path>
</svg>